<mxfile host="Electron" modified="2024-06-25T08:29:52.720Z" agent="Mozilla/5.0 (X11; Linux x86_64) AppleWebKit/537.36 (KHTML, like Gecko) draw.io/24.5.3 Chrome/124.0.6367.207 Electron/30.0.6 Safari/537.36" etag="6_fqlsFLKGPJgaCtJPhD" version="24.5.3" type="device">
  <diagram name="Page-1" id="SOJ3r4OxMs76CuXjOSab">
    <mxGraphModel dx="1350" dy="1929" grid="1" gridSize="10" guides="1" tooltips="1" connect="1" arrows="1" fold="1" page="1" pageScale="1" pageWidth="850" pageHeight="1100" math="0" shadow="0">
      <root>
        <mxCell id="0" />
        <mxCell id="1" parent="0" />
        <mxCell id="IKTOr-LaJqYRIasCOozO-1" value="UART" style="rounded=0;whiteSpace=wrap;html=1;verticalAlign=bottom;fontSize=18;" parent="1" vertex="1">
          <mxGeometry x="200" y="200" width="120" height="240" as="geometry" />
        </mxCell>
        <mxCell id="IKTOr-LaJqYRIasCOozO-2" value="" style="rounded=0;whiteSpace=wrap;html=1;fillColor=#000000;fillStyle=hatch;" parent="1" vertex="1">
          <mxGeometry x="221" y="360" width="80" height="40" as="geometry" />
        </mxCell>
        <mxCell id="IKTOr-LaJqYRIasCOozO-3" value="Rx FIFO" style="rounded=0;whiteSpace=wrap;html=1;fillColor=#000000;fillStyle=hatch;fontSize=18;fontStyle=1" parent="1" vertex="1">
          <mxGeometry x="221" y="320" width="80" height="40" as="geometry" />
        </mxCell>
        <mxCell id="IKTOr-LaJqYRIasCOozO-4" value="" style="rounded=0;whiteSpace=wrap;html=1;fillStyle=hatch;fillColor=#000000;" parent="1" vertex="1">
          <mxGeometry x="221" y="280" width="80" height="40" as="geometry" />
        </mxCell>
        <mxCell id="IKTOr-LaJqYRIasCOozO-5" value="CPU&lt;div&gt;in M-Mode&lt;/div&gt;" style="rounded=0;whiteSpace=wrap;html=1;fontSize=18;" parent="1" vertex="1">
          <mxGeometry x="180" y="-40" width="160" height="120" as="geometry" />
        </mxCell>
        <mxCell id="IKTOr-LaJqYRIasCOozO-6" value="IRQ = 0" style="endArrow=classic;html=1;rounded=0;entryX=0.5;entryY=1;entryDx=0;entryDy=0;fontSize=18;exitX=0.5;exitY=0;exitDx=0;exitDy=0;" parent="1" source="IKTOr-LaJqYRIasCOozO-53" target="IKTOr-LaJqYRIasCOozO-5" edge="1">
          <mxGeometry x="0.1429" width="50" height="50" relative="1" as="geometry">
            <mxPoint x="260" y="200" as="sourcePoint" />
            <mxPoint x="310" y="150" as="targetPoint" />
            <mxPoint as="offset" />
          </mxGeometry>
        </mxCell>
        <mxCell id="IKTOr-LaJqYRIasCOozO-7" value="UART" style="rounded=0;whiteSpace=wrap;html=1;verticalAlign=bottom;fontSize=18;" parent="1" vertex="1">
          <mxGeometry x="600" y="200" width="120" height="240" as="geometry" />
        </mxCell>
        <mxCell id="IKTOr-LaJqYRIasCOozO-8" value="&#39;H&#39;" style="rounded=0;whiteSpace=wrap;html=1;fillColor=none;fillStyle=hatch;fontSize=18;" parent="1" vertex="1">
          <mxGeometry x="621" y="360" width="80" height="40" as="geometry" />
        </mxCell>
        <mxCell id="IKTOr-LaJqYRIasCOozO-9" value="Rx FIFO" style="rounded=0;whiteSpace=wrap;html=1;fillColor=#000000;fillStyle=hatch;fontSize=18;fontStyle=1" parent="1" vertex="1">
          <mxGeometry x="621" y="320" width="80" height="40" as="geometry" />
        </mxCell>
        <mxCell id="IKTOr-LaJqYRIasCOozO-10" value="" style="rounded=0;whiteSpace=wrap;html=1;fillStyle=hatch;fillColor=#000000;" parent="1" vertex="1">
          <mxGeometry x="621" y="280" width="80" height="40" as="geometry" />
        </mxCell>
        <mxCell id="IKTOr-LaJqYRIasCOozO-11" value="CPU&lt;div style=&quot;font-size: 18px;&quot;&gt;enters uart_irq_handler()&lt;/div&gt;" style="rounded=0;whiteSpace=wrap;html=1;fontSize=18;" parent="1" vertex="1">
          <mxGeometry x="580" y="-40" width="160" height="120" as="geometry" />
        </mxCell>
        <mxCell id="IKTOr-LaJqYRIasCOozO-12" value="IRQ = 1" style="endArrow=classic;html=1;rounded=0;entryX=0.5;entryY=1;entryDx=0;entryDy=0;fontSize=18;exitX=0.5;exitY=0;exitDx=0;exitDy=0;" parent="1" source="IKTOr-LaJqYRIasCOozO-56" target="IKTOr-LaJqYRIasCOozO-11" edge="1">
          <mxGeometry x="0.1429" y="1" width="50" height="50" relative="1" as="geometry">
            <mxPoint x="660" y="200" as="sourcePoint" />
            <mxPoint x="710" y="150" as="targetPoint" />
            <mxPoint as="offset" />
          </mxGeometry>
        </mxCell>
        <mxCell id="IKTOr-LaJqYRIasCOozO-16" value="UART" style="rounded=0;whiteSpace=wrap;html=1;verticalAlign=bottom;fontSize=18;" parent="1" vertex="1">
          <mxGeometry x="800" y="200" width="120" height="240" as="geometry" />
        </mxCell>
        <mxCell id="IKTOr-LaJqYRIasCOozO-18" value="Rx FIFO" style="rounded=0;whiteSpace=wrap;html=1;fillColor=#000000;fillStyle=hatch;fontSize=18;fontStyle=1" parent="1" vertex="1">
          <mxGeometry x="821" y="320" width="80" height="40" as="geometry" />
        </mxCell>
        <mxCell id="IKTOr-LaJqYRIasCOozO-19" value="" style="rounded=0;whiteSpace=wrap;html=1;fillStyle=hatch;fillColor=#000000;" parent="1" vertex="1">
          <mxGeometry x="821" y="280" width="80" height="40" as="geometry" />
        </mxCell>
        <mxCell id="IKTOr-LaJqYRIasCOozO-20" value="CPU&lt;div style=&quot;font-size: 18px;&quot;&gt;&lt;div style=&quot;font-size: 18px;&quot;&gt;uart_irq_handler()&lt;/div&gt;&lt;div style=&quot;font-size: 18px;&quot;&gt;acknowledges&lt;/div&gt;&lt;div style=&quot;font-size: 18px;&quot;&gt;IRQ by writing to ISR reg.&lt;/div&gt;&lt;/div&gt;" style="rounded=0;whiteSpace=wrap;html=1;fontSize=18;" parent="1" vertex="1">
          <mxGeometry x="780" y="-40" width="160" height="120" as="geometry" />
        </mxCell>
        <mxCell id="IKTOr-LaJqYRIasCOozO-23" value="" style="endArrow=classic;html=1;rounded=0;entryX=0.333;entryY=0.2;entryDx=0;entryDy=0;entryPerimeter=0;" parent="1" source="IKTOr-LaJqYRIasCOozO-57" target="IKTOr-LaJqYRIasCOozO-16" edge="1">
          <mxGeometry width="50" height="50" relative="1" as="geometry">
            <mxPoint x="840" y="80" as="sourcePoint" />
            <mxPoint x="820" y="130" as="targetPoint" />
          </mxGeometry>
        </mxCell>
        <mxCell id="IKTOr-LaJqYRIasCOozO-24" value="UART" style="rounded=0;whiteSpace=wrap;html=1;verticalAlign=bottom;fontSize=18;" parent="1" vertex="1">
          <mxGeometry x="1020" y="200" width="120" height="240" as="geometry" />
        </mxCell>
        <mxCell id="IKTOr-LaJqYRIasCOozO-26" value="Rx FIFO" style="rounded=0;whiteSpace=wrap;html=1;fillColor=#000000;fillStyle=hatch;fontSize=18;fontStyle=1" parent="1" vertex="1">
          <mxGeometry x="1041" y="320" width="80" height="40" as="geometry" />
        </mxCell>
        <mxCell id="IKTOr-LaJqYRIasCOozO-27" value="" style="rounded=0;whiteSpace=wrap;html=1;fillStyle=hatch;fillColor=#000000;" parent="1" vertex="1">
          <mxGeometry x="1041" y="280" width="80" height="40" as="geometry" />
        </mxCell>
        <mxCell id="IKTOr-LaJqYRIasCOozO-28" value="CPU&lt;div style=&quot;font-size: 18px;&quot;&gt;uart_irq_handler()&lt;/div&gt;&lt;div style=&quot;font-size: 18px;&quot;&gt;reads character from FIFO&lt;/div&gt;" style="rounded=0;whiteSpace=wrap;html=1;fontSize=18;" parent="1" vertex="1">
          <mxGeometry x="1000" y="-40" width="160" height="120" as="geometry" />
        </mxCell>
        <mxCell id="IKTOr-LaJqYRIasCOozO-29" value="IRQ = 0" style="endArrow=classic;html=1;rounded=0;entryX=0.5;entryY=1;entryDx=0;entryDy=0;fontSize=18;" parent="1" target="IKTOr-LaJqYRIasCOozO-28" edge="1">
          <mxGeometry y="-20" width="50" height="50" relative="1" as="geometry">
            <mxPoint x="1080" y="200" as="sourcePoint" />
            <mxPoint x="1130" y="150" as="targetPoint" />
            <mxPoint as="offset" />
          </mxGeometry>
        </mxCell>
        <mxCell id="IKTOr-LaJqYRIasCOozO-33" value="" style="endArrow=none;html=1;rounded=0;" parent="1" edge="1">
          <mxGeometry width="50" height="50" relative="1" as="geometry">
            <mxPoint x="483" y="160" as="sourcePoint" />
            <mxPoint x="543" y="120" as="targetPoint" />
            <Array as="points">
              <mxPoint x="513" y="160" />
              <mxPoint x="513" y="120" />
            </Array>
          </mxGeometry>
        </mxCell>
        <mxCell id="IKTOr-LaJqYRIasCOozO-35" value="" style="endArrow=none;html=1;rounded=0;" parent="1" edge="1">
          <mxGeometry width="50" height="50" relative="1" as="geometry">
            <mxPoint x="942" y="160" as="sourcePoint" />
            <mxPoint x="882" y="120" as="targetPoint" />
            <Array as="points">
              <mxPoint x="912" y="160" />
              <mxPoint x="912" y="120" />
            </Array>
          </mxGeometry>
        </mxCell>
        <mxCell id="IKTOr-LaJqYRIasCOozO-36" value="" style="endArrow=none;html=1;rounded=0;" parent="1" edge="1">
          <mxGeometry width="50" height="50" relative="1" as="geometry">
            <mxPoint x="280" y="160" as="sourcePoint" />
            <mxPoint x="320" y="160" as="targetPoint" />
          </mxGeometry>
        </mxCell>
        <mxCell id="IKTOr-LaJqYRIasCOozO-37" value="" style="endArrow=none;html=1;rounded=0;" parent="1" edge="1">
          <mxGeometry width="50" height="50" relative="1" as="geometry">
            <mxPoint x="670" y="120" as="sourcePoint" />
            <mxPoint x="710" y="120" as="targetPoint" />
          </mxGeometry>
        </mxCell>
        <mxCell id="IKTOr-LaJqYRIasCOozO-39" value="UART" style="rounded=0;whiteSpace=wrap;html=1;verticalAlign=bottom;fontSize=18;" parent="1" vertex="1">
          <mxGeometry x="400" y="200" width="120" height="240" as="geometry" />
        </mxCell>
        <mxCell id="IKTOr-LaJqYRIasCOozO-41" value="Rx FIFO" style="rounded=0;whiteSpace=wrap;html=1;fillColor=#000000;fillStyle=hatch;fontSize=18;fontStyle=1" parent="1" vertex="1">
          <mxGeometry x="421" y="320" width="80" height="40" as="geometry" />
        </mxCell>
        <mxCell id="IKTOr-LaJqYRIasCOozO-42" value="" style="rounded=0;whiteSpace=wrap;html=1;fillStyle=hatch;fillColor=#000000;" parent="1" vertex="1">
          <mxGeometry x="421" y="280" width="80" height="40" as="geometry" />
        </mxCell>
        <mxCell id="IKTOr-LaJqYRIasCOozO-43" value="CPU&lt;div&gt;in M-Mode&lt;/div&gt;" style="rounded=0;whiteSpace=wrap;html=1;fontSize=18;" parent="1" vertex="1">
          <mxGeometry x="380" y="-40" width="160" height="120" as="geometry" />
        </mxCell>
        <mxCell id="IKTOr-LaJqYRIasCOozO-44" value="IRQ = 0-&amp;gt;1" style="endArrow=classic;html=1;rounded=0;entryX=0.5;entryY=1;entryDx=0;entryDy=0;fontSize=18;exitX=0.5;exitY=0;exitDx=0;exitDy=0;" parent="1" source="IKTOr-LaJqYRIasCOozO-55" target="IKTOr-LaJqYRIasCOozO-43" edge="1">
          <mxGeometry x="0.1398" y="-30" width="50" height="50" relative="1" as="geometry">
            <mxPoint x="460" y="200" as="sourcePoint" />
            <mxPoint x="510" y="150" as="targetPoint" />
            <mxPoint as="offset" />
          </mxGeometry>
        </mxCell>
        <mxCell id="IKTOr-LaJqYRIasCOozO-38" value="A character&lt;div style=&quot;font-size: 18px;&quot;&gt;arrives&lt;/div&gt;" style="endArrow=classic;html=1;rounded=0;fontSize=18;entryX=0.5;entryY=1;entryDx=0;entryDy=0;" parent="1" target="IKTOr-LaJqYRIasCOozO-48" edge="1">
          <mxGeometry x="-1" y="-30" width="50" height="50" relative="1" as="geometry">
            <mxPoint x="460" y="450" as="sourcePoint" />
            <mxPoint x="460" y="360" as="targetPoint" />
            <mxPoint x="-30" y="30" as="offset" />
          </mxGeometry>
        </mxCell>
        <mxCell id="IKTOr-LaJqYRIasCOozO-48" value="&#39;H&#39;" style="rounded=0;whiteSpace=wrap;html=1;fillColor=none;fillStyle=hatch;fontSize=18;" parent="1" vertex="1">
          <mxGeometry x="421" y="360" width="80" height="40" as="geometry" />
        </mxCell>
        <mxCell id="IKTOr-LaJqYRIasCOozO-52" value="" style="endArrow=none;html=1;rounded=0;" parent="1" edge="1">
          <mxGeometry width="50" height="50" relative="1" as="geometry">
            <mxPoint x="1099" y="160" as="sourcePoint" />
            <mxPoint x="1139" y="160" as="targetPoint" />
          </mxGeometry>
        </mxCell>
        <mxCell id="IKTOr-LaJqYRIasCOozO-21" value="IRQ = 1-&amp;gt;0" style="endArrow=classic;html=1;rounded=0;entryX=0.5;entryY=1;entryDx=0;entryDy=0;fontSize=18;" parent="1" target="IKTOr-LaJqYRIasCOozO-20" edge="1">
          <mxGeometry y="-39" width="50" height="50" relative="1" as="geometry">
            <mxPoint x="860" y="200" as="sourcePoint" />
            <mxPoint x="910" y="150" as="targetPoint" />
            <mxPoint as="offset" />
          </mxGeometry>
        </mxCell>
        <mxCell id="IKTOr-LaJqYRIasCOozO-53" value="ISR=&lt;div&gt;0000&lt;/div&gt;" style="rounded=0;whiteSpace=wrap;html=1;fontSize=18;" parent="1" vertex="1">
          <mxGeometry x="219.5" y="220" width="81" height="40" as="geometry" />
        </mxCell>
        <mxCell id="IKTOr-LaJqYRIasCOozO-55" value="ISR=&lt;div&gt;0001&lt;/div&gt;" style="rounded=0;whiteSpace=wrap;html=1;fontSize=18;" parent="1" vertex="1">
          <mxGeometry x="420.5" y="220" width="81" height="40" as="geometry" />
        </mxCell>
        <mxCell id="IKTOr-LaJqYRIasCOozO-56" value="ISR=&lt;div&gt;0001&lt;/div&gt;" style="rounded=0;whiteSpace=wrap;html=1;fontSize=18;" parent="1" vertex="1">
          <mxGeometry x="619.5" y="220" width="81" height="40" as="geometry" />
        </mxCell>
        <mxCell id="IKTOr-LaJqYRIasCOozO-58" value="" style="endArrow=classic;html=1;rounded=0;entryX=0.25;entryY=0;entryDx=0;entryDy=0;" parent="1" target="IKTOr-LaJqYRIasCOozO-57" edge="1">
          <mxGeometry width="50" height="50" relative="1" as="geometry">
            <mxPoint x="840" y="80" as="sourcePoint" />
            <mxPoint x="840" y="248" as="targetPoint" />
          </mxGeometry>
        </mxCell>
        <mxCell id="IKTOr-LaJqYRIasCOozO-57" value="ISR=&lt;div&gt;0000&lt;/div&gt;" style="rounded=0;whiteSpace=wrap;html=1;fontSize=18;" parent="1" vertex="1">
          <mxGeometry x="819.5" y="220" width="81" height="40" as="geometry" />
        </mxCell>
        <mxCell id="IKTOr-LaJqYRIasCOozO-59" value="&#39;H&#39;" style="rounded=0;whiteSpace=wrap;html=1;fillColor=none;fillStyle=hatch;fontSize=18;" parent="1" vertex="1">
          <mxGeometry x="821" y="360" width="80" height="40" as="geometry" />
        </mxCell>
        <mxCell id="IKTOr-LaJqYRIasCOozO-60" value="ISR=&lt;div&gt;0000&lt;/div&gt;" style="rounded=0;whiteSpace=wrap;html=1;fontSize=18;" parent="1" vertex="1">
          <mxGeometry x="1041" y="220" width="81" height="40" as="geometry" />
        </mxCell>
        <mxCell id="IKTOr-LaJqYRIasCOozO-63" value="" style="shape=flexArrow;endArrow=classic;html=1;rounded=0;fillColor=#9999FF;" parent="1" edge="1">
          <mxGeometry width="50" height="50" relative="1" as="geometry">
            <mxPoint x="340" y="200" as="sourcePoint" />
            <mxPoint x="380" y="200" as="targetPoint" />
          </mxGeometry>
        </mxCell>
        <mxCell id="IKTOr-LaJqYRIasCOozO-64" value="" style="shape=flexArrow;endArrow=classic;html=1;rounded=0;fillColor=#9999FF;" parent="1" edge="1">
          <mxGeometry width="50" height="50" relative="1" as="geometry">
            <mxPoint x="541" y="200" as="sourcePoint" />
            <mxPoint x="581" y="200" as="targetPoint" />
          </mxGeometry>
        </mxCell>
        <mxCell id="IKTOr-LaJqYRIasCOozO-66" value="" style="shape=flexArrow;endArrow=classic;html=1;rounded=0;fillColor=#9999FF;" parent="1" edge="1">
          <mxGeometry width="50" height="50" relative="1" as="geometry">
            <mxPoint x="740" y="200" as="sourcePoint" />
            <mxPoint x="780" y="200" as="targetPoint" />
          </mxGeometry>
        </mxCell>
        <mxCell id="IKTOr-LaJqYRIasCOozO-67" value="" style="shape=flexArrow;endArrow=classic;html=1;rounded=0;fillColor=#9999FF;" parent="1" edge="1">
          <mxGeometry width="50" height="50" relative="1" as="geometry">
            <mxPoint x="940" y="200" as="sourcePoint" />
            <mxPoint x="980" y="200" as="targetPoint" />
          </mxGeometry>
        </mxCell>
        <mxCell id="YyzdlojqQKbJAKDzkC_5-1" value="UART" style="rounded=0;whiteSpace=wrap;html=1;verticalAlign=bottom;fontSize=18;" parent="1" vertex="1">
          <mxGeometry x="1240" y="200" width="120" height="240" as="geometry" />
        </mxCell>
        <mxCell id="YyzdlojqQKbJAKDzkC_5-2" value="Rx FIFO" style="rounded=0;whiteSpace=wrap;html=1;fillColor=#000000;fillStyle=hatch;fontSize=18;fontStyle=1" parent="1" vertex="1">
          <mxGeometry x="1261" y="320" width="80" height="40" as="geometry" />
        </mxCell>
        <mxCell id="YyzdlojqQKbJAKDzkC_5-3" value="" style="rounded=0;whiteSpace=wrap;html=1;fillStyle=hatch;fillColor=#000000;" parent="1" vertex="1">
          <mxGeometry x="1261" y="280" width="80" height="40" as="geometry" />
        </mxCell>
        <mxCell id="YyzdlojqQKbJAKDzkC_5-4" value="CPU&lt;div style=&quot;font-size: 18px;&quot;&gt;uart_irq_handler()&lt;/div&gt;&lt;div style=&quot;font-size: 18px;&quot;&gt;returns from interrupt (iret)&lt;/div&gt;" style="rounded=0;whiteSpace=wrap;html=1;fontSize=18;" parent="1" vertex="1">
          <mxGeometry x="1220" y="-40" width="160" height="120" as="geometry" />
        </mxCell>
        <mxCell id="YyzdlojqQKbJAKDzkC_5-5" value="IRQ = 0" style="endArrow=classic;html=1;rounded=0;entryX=0.5;entryY=1;entryDx=0;entryDy=0;fontSize=18;" parent="1" target="YyzdlojqQKbJAKDzkC_5-4" edge="1">
          <mxGeometry width="50" height="50" relative="1" as="geometry">
            <mxPoint x="1300" y="200" as="sourcePoint" />
            <mxPoint x="1350" y="150" as="targetPoint" />
          </mxGeometry>
        </mxCell>
        <mxCell id="YyzdlojqQKbJAKDzkC_5-6" value="" style="endArrow=none;html=1;rounded=0;" parent="1" edge="1">
          <mxGeometry width="50" height="50" relative="1" as="geometry">
            <mxPoint x="1319" y="160" as="sourcePoint" />
            <mxPoint x="1359" y="160" as="targetPoint" />
          </mxGeometry>
        </mxCell>
        <mxCell id="YyzdlojqQKbJAKDzkC_5-7" value="ISR=&lt;div&gt;0000&lt;/div&gt;" style="rounded=0;whiteSpace=wrap;html=1;fontSize=18;" parent="1" vertex="1">
          <mxGeometry x="1261" y="220" width="81" height="40" as="geometry" />
        </mxCell>
        <mxCell id="YyzdlojqQKbJAKDzkC_5-9" value="" style="shape=flexArrow;endArrow=classic;html=1;rounded=0;fillColor=#9999FF;" parent="1" edge="1">
          <mxGeometry width="50" height="50" relative="1" as="geometry">
            <mxPoint x="1160" y="200" as="sourcePoint" />
            <mxPoint x="1200" y="200" as="targetPoint" />
          </mxGeometry>
        </mxCell>
        <mxCell id="YyzdlojqQKbJAKDzkC_5-11" value="" style="endArrow=classic;html=1;rounded=0;entryX=0.25;entryY=0;entryDx=0;entryDy=0;" parent="1" edge="1">
          <mxGeometry width="50" height="50" relative="1" as="geometry">
            <mxPoint x="1050" y="80" as="sourcePoint" />
            <mxPoint x="1050" y="220" as="targetPoint" />
          </mxGeometry>
        </mxCell>
        <mxCell id="YyzdlojqQKbJAKDzkC_5-12" value="&lt;font style=&quot;font-size: 18px;&quot;&gt;&#39;H&#39;&lt;/font&gt;" style="endArrow=classic;html=1;rounded=0;" parent="1" edge="1">
          <mxGeometry y="20" width="50" height="50" relative="1" as="geometry">
            <mxPoint x="1040" y="160" as="sourcePoint" />
            <mxPoint x="1040" y="120" as="targetPoint" />
            <mxPoint as="offset" />
          </mxGeometry>
        </mxCell>
        <mxCell id="ZteO5XsFwmNxw6oOgYzn-1" value="" style="endArrow=none;html=1;rounded=0;strokeWidth=4;" parent="1" edge="1">
          <mxGeometry width="50" height="50" relative="1" as="geometry">
            <mxPoint x="980" y="480" as="sourcePoint" />
            <mxPoint x="980" y="-80" as="targetPoint" />
          </mxGeometry>
        </mxCell>
        <mxCell id="ZteO5XsFwmNxw6oOgYzn-2" value="" style="endArrow=none;html=1;rounded=0;strokeWidth=4;" parent="1" edge="1">
          <mxGeometry width="50" height="50" relative="1" as="geometry">
            <mxPoint x="1180" y="480" as="sourcePoint" />
            <mxPoint x="1180" y="-80" as="targetPoint" />
          </mxGeometry>
        </mxCell>
        <mxCell id="ZteO5XsFwmNxw6oOgYzn-3" value="" style="endArrow=none;html=1;rounded=0;strokeWidth=3;" parent="1" edge="1">
          <mxGeometry width="50" height="50" relative="1" as="geometry">
            <mxPoint x="980" y="-80" as="sourcePoint" />
            <mxPoint x="1000" y="-80" as="targetPoint" />
          </mxGeometry>
        </mxCell>
        <mxCell id="ZteO5XsFwmNxw6oOgYzn-5" value="" style="endArrow=none;html=1;rounded=0;strokeWidth=3;" parent="1" edge="1">
          <mxGeometry width="50" height="50" relative="1" as="geometry">
            <mxPoint x="980" y="480" as="sourcePoint" />
            <mxPoint x="1000" y="480" as="targetPoint" />
          </mxGeometry>
        </mxCell>
        <mxCell id="ZteO5XsFwmNxw6oOgYzn-6" value="" style="endArrow=none;html=1;rounded=0;strokeWidth=3;" parent="1" edge="1">
          <mxGeometry width="50" height="50" relative="1" as="geometry">
            <mxPoint x="1160" y="-80" as="sourcePoint" />
            <mxPoint x="1180" y="-80" as="targetPoint" />
          </mxGeometry>
        </mxCell>
        <mxCell id="ZteO5XsFwmNxw6oOgYzn-7" value="" style="endArrow=none;html=1;rounded=0;strokeWidth=3;" parent="1" edge="1">
          <mxGeometry width="50" height="50" relative="1" as="geometry">
            <mxPoint x="1160" y="480" as="sourcePoint" />
            <mxPoint x="1180" y="480" as="targetPoint" />
          </mxGeometry>
        </mxCell>
        <mxCell id="ZteO5XsFwmNxw6oOgYzn-8" value="Optionally" style="text;html=1;align=center;verticalAlign=middle;whiteSpace=wrap;rounded=0;fontSize=24;fontStyle=1" parent="1" vertex="1">
          <mxGeometry x="1050" y="-100" width="60" height="30" as="geometry" />
        </mxCell>
        <mxCell id="ZteO5XsFwmNxw6oOgYzn-9" value="" style="rounded=0;whiteSpace=wrap;html=1;fillStyle=hatch;fillColor=#000000;" parent="1" vertex="1">
          <mxGeometry x="1041" y="360" width="80" height="40" as="geometry" />
        </mxCell>
        <mxCell id="ZteO5XsFwmNxw6oOgYzn-10" value="" style="rounded=0;whiteSpace=wrap;html=1;fillStyle=hatch;fillColor=#000000;" parent="1" vertex="1">
          <mxGeometry x="1261" y="360" width="80" height="40" as="geometry" />
        </mxCell>
      </root>
    </mxGraphModel>
  </diagram>
</mxfile>
